<svg width="40" height="36" viewBox="0 0 40 36" fill="none" xmlns="http://www.w3.org/2000/svg">
<path fill-rule="evenodd" clip-rule="evenodd" d="M4.66128 5.28595L17.3451 3.04946C18.6451 2.82023 19.9003 3.40555 20.5872 4.4388C21.4797 3.52475 22.7936 3.0531 24.1466 3.29167L35.2939 5.25723C37.4694 5.64084 38.9221 7.71548 38.5385 9.89105L34.8956 30.5511C34.512 32.7267 32.4373 34.1794 30.2617 33.7958L20.059 31.9967L9.69339 33.8245C7.94213 34.1333 6.27212 32.9639 5.96332 31.2127L2.04946 9.01602C1.74066 7.26476 2.91001 5.59475 4.66128 5.28595ZM35.0334 6.73444L23.8862 4.76889C22.8664 4.58907 21.882 5.05482 21.3525 5.87257C21.2842 5.97804 21.2234 6.08936 21.1712 6.20591L24.989 27.8579C25.218 29.1569 24.6339 30.4111 23.6022 31.0984L30.5222 32.3186C31.882 32.5583 33.1786 31.6504 33.4184 30.2906L37.0613 9.63058C37.301 8.27084 36.3931 6.9742 35.0334 6.73444Z" fill="#F6F6F6"/>
</svg>
