<svg width="20" height="20" viewBox="0 0 20 20" fill="none" xmlns="http://www.w3.org/2000/svg">
<g clip-path="url(#clip0_133_485)">
<path d="M10.0003 1.66675C5.40033 1.66675 1.66699 5.40008 1.66699 10.0001C1.66699 14.6001 5.40033 18.3334 10.0003 18.3334C14.6003 18.3334 18.3337 14.6001 18.3337 10.0001C18.3337 5.40008 14.6003 1.66675 10.0003 1.66675ZM7.74199 13.5751L4.75033 10.5834C4.42533 10.2584 4.42533 9.73341 4.75033 9.40841C5.07533 9.08341 5.60033 9.08341 5.92533 9.40841L8.33366 11.8084L14.067 6.07508C14.392 5.75008 14.917 5.75008 15.242 6.07508C15.567 6.40008 15.567 6.92508 15.242 7.25008L8.91699 13.5751C8.60033 13.9001 8.06699 13.9001 7.74199 13.5751Z" fill="black"/>
</g>
<defs>
<clipPath id="clip0_133_485">
<rect width="20" height="20" fill="white"/>
</clipPath>
</defs>
</svg>
