<svg width="20" height="20" viewBox="0 0 20 20" fill="none" xmlns="http://www.w3.org/2000/svg">
<g clip-path="url(#clip0_1673_1372)">
<path d="M15.5 5.5166C14.3 5.5166 13.1667 5.98327 12.3583 6.7916L10 8.88327L8.73333 9.99994H8.74167L6.5 11.9916C5.96667 12.5249 5.25833 12.8166 4.5 12.8166C2.94167 12.8166 1.675 11.5583 1.675 9.99994C1.675 8.4416 2.94167 7.18327 4.5 7.18327C5.25833 7.18327 5.96667 7.47493 6.53333 8.0416L7.475 8.87493L8.73333 7.75827L7.68333 6.83327C6.83333 5.98327 5.7 5.5166 4.5 5.5166C2.01667 5.5166 0 7.53327 0 9.99994C0 12.4666 2.01667 14.4833 4.5 14.4833C5.7 14.4833 6.83333 14.0166 7.64167 13.2083L10 11.1249L10.0083 11.1333L11.2667 9.99994H11.2583L13.5 8.00827C14.0333 7.47493 14.7417 7.18327 15.5 7.18327C17.0583 7.18327 18.325 8.4416 18.325 9.99994C18.325 11.5583 17.0583 12.8166 15.5 12.8166C14.75 12.8166 14.0333 12.5249 13.4667 11.9583L12.5167 11.1166L11.2583 12.2333L12.3167 13.1666C13.1667 14.0083 14.2917 14.4749 15.5 14.4749C17.9833 14.4749 20 12.4666 20 9.9916C20 7.5166 17.9833 5.5166 15.5 5.5166Z" fill="black"/>
</g>
<defs>
<clipPath id="clip0_1673_1372">
<rect width="20" height="20" fill="white"/>
</clipPath>
</defs>
</svg>
