<svg width="54" height="32" viewBox="0 0 54 32" fill="none" xmlns="http://www.w3.org/2000/svg">
<rect x="2.27406" y="5.55525" width="16.7317" height="26.0976" rx="3" transform="rotate(-15 2.27406 5.55525)" stroke="#F6F6F6" stroke-width="2"/>
<path d="M7.9812 18.6617L8.76979 21.6047L20.6326 18.4261L20.2341 16.0336L10.7582 7.15637L7.74721 7.96316L12.4532 12.4407L16.4255 16.399L7.9812 18.6617ZM6.95485 8.17547L11.371 24.6566L15.1856 23.6344L10.7695 7.15334L6.95485 8.17547Z" fill="#F6F6F6"/>
<rect x="35.564" y="1.22474" width="16.7317" height="26.0976" rx="3" transform="rotate(15 35.564 1.22474)" stroke="#F6F6F6" stroke-width="2"/>
<path d="M45.5454 15.7199L44.9157 18.07C44.668 18.9947 44.3436 19.7694 43.9426 20.3943C43.5475 21.0207 43.0897 21.504 42.5693 21.8443C42.0547 22.1862 41.4944 22.3927 40.8882 22.4639C40.2821 22.535 39.6492 22.4822 38.9895 22.3055C38.4594 22.1634 37.9828 21.9631 37.5597 21.7046C37.1382 21.4401 36.7798 21.1168 36.4845 20.7347C36.1966 20.3483 35.9778 19.9046 35.828 19.4036C35.6781 18.9026 35.6107 18.3416 35.6256 17.7207C35.642 17.0938 35.7497 16.4093 35.9485 15.6672L36.5782 13.3172C36.8276 12.3866 37.149 11.6111 37.5425 10.9905C37.9435 10.3657 38.4042 9.88315 38.9247 9.54285C39.4451 9.20254 40.0084 8.99681 40.6146 8.92565C41.2207 8.8545 41.8536 8.9073 42.5132 9.08405C43.0433 9.22609 43.5162 9.42854 43.9318 9.69142C44.3549 9.94998 44.7134 10.2733 45.0071 10.6613C45.3024 11.0434 45.522 11.4842 45.666 11.9836C45.8158 12.4846 45.8825 13.0485 45.866 13.6753C45.8511 14.2963 45.7443 14.9778 45.5454 15.7199ZM41.8414 17.6344L42.6699 14.5423C42.7804 14.13 42.8531 13.7644 42.888 13.4455C42.9289 13.1282 42.9335 12.8517 42.902 12.616C42.8764 12.3819 42.819 12.1834 42.7301 12.0207C42.6427 11.8521 42.5274 11.7171 42.3841 11.6156C42.2484 11.5097 42.0862 11.4316 41.8978 11.3811C41.6622 11.3179 41.4367 11.3112 41.2214 11.3608C41.0136 11.4061 40.8165 11.5174 40.6301 11.6948C40.4437 11.8721 40.2678 12.128 40.1025 12.4624C39.943 12.7984 39.7946 13.2227 39.6573 13.7351L38.8288 16.8272C38.7167 17.2454 38.6395 17.6161 38.5971 17.9393C38.5621 18.2582 38.5567 18.5376 38.5807 18.7776C38.6123 19.0133 38.6717 19.2155 38.7591 19.3841C38.8481 19.5468 38.9642 19.6789 39.1074 19.7804C39.2507 19.882 39.4165 19.958 39.605 20.0085C39.8347 20.07 40.0535 20.0781 40.2613 20.0328C40.4691 19.9875 40.6663 19.8762 40.8526 19.6989C41.0465 19.5173 41.2232 19.2584 41.3826 18.9224C41.5496 18.5821 41.7025 18.1527 41.8414 17.6344Z" fill="#F6F6F6"/>
<path d="M17.6343 3.50623C17.6343 1.78202 19.032 0.384277 20.7562 0.384277H33.244C34.9682 0.384277 36.366 1.78202 36.366 3.50623V25.3599C36.366 27.0841 34.9682 28.4818 33.244 28.4818H20.7562C19.032 28.4818 17.6343 27.0841 17.6343 25.3599V3.50623Z" fill="#F6F6F6"/>
<path d="M22.3538 10.2471V8.18916H31.4635V9.94525L27.1556 14.5642C26.7227 15.0459 26.3812 15.4696 26.1312 15.8355C25.8812 16.2074 25.7014 16.5398 25.5916 16.8324C25.4757 17.1312 25.4178 17.4148 25.4178 17.6831C25.4178 18.0855 25.4849 18.43 25.619 18.7166C25.7532 19.0093 25.9514 19.2349 26.2135 19.3934C26.4696 19.552 26.7867 19.6312 27.1648 19.6312C27.5672 19.6312 27.9148 19.5337 28.2074 19.3385C28.494 19.1434 28.7135 18.8721 28.866 18.5245C29.0123 18.177 29.0855 17.7837 29.0855 17.3446H31.7288C31.7288 18.1373 31.5398 18.8629 31.1617 19.5215C30.7837 20.1861 30.2501 20.7135 29.5611 21.1038C28.8721 21.5001 28.055 21.6983 27.1099 21.6983C26.177 21.6983 25.3904 21.5459 24.7501 21.241C24.1038 20.9422 23.616 20.5093 23.2867 19.9422C22.9514 19.3812 22.7837 18.7105 22.7837 17.93C22.7837 17.491 22.8538 17.0611 22.994 16.6404C23.1343 16.2257 23.3355 15.8111 23.5977 15.3965C23.8538 14.9879 24.1648 14.5733 24.5306 14.1526C24.8965 13.7318 25.302 13.2959 25.7471 12.8446L28.0611 10.2471H22.3538Z" fill="black"/>
<path d="M9.29181 18.2603L9.9073 20.5573L19.1661 18.0764L18.8551 16.2091L11.4592 9.28057L9.10918 9.91026L12.7822 13.4049L15.8825 16.4943L9.29181 18.2603ZM8.4908 10.076L11.9375 22.9393L14.9148 22.1414L11.468 9.27815L8.4908 10.076Z" fill="#F6F6F6"/>
<path d="M45.5463 15.72L44.9166 18.07C44.6689 18.9948 44.3445 19.7695 43.9435 20.3943C43.5484 21.0207 43.0907 21.5041 42.5702 21.8444C42.0557 22.1862 41.4953 22.3928 40.8892 22.4639C40.283 22.535 39.6501 22.4823 38.9905 22.3055C38.4604 22.1635 37.9838 21.9632 37.5607 21.7046C37.1391 21.4402 36.7807 21.1169 36.4854 20.7348C36.1976 20.3483 35.9787 19.9046 35.8289 19.4037C35.6791 18.9027 35.6116 18.3417 35.6265 17.7207C35.643 17.0939 35.7506 16.4094 35.9494 15.6673L36.5791 13.3172C36.8285 12.3867 37.1499 11.6111 37.5434 10.9906C37.9445 10.3658 38.4052 9.88318 38.9256 9.54289C39.446 9.2026 40.0093 8.99686 40.6155 8.92568C41.2216 8.85458 41.8545 8.90734 42.5142 9.08412C43.0442 9.22617 43.5171 9.42863 43.9327 9.69149C44.3558 9.94999 44.7142 10.2733 45.008 10.6613C45.3033 11.0435 45.5229 11.4843 45.6669 11.9836C45.8167 12.4846 45.8834 13.0485 45.867 13.6754C45.852 14.2964 45.7452 14.9779 45.5463 15.72ZM41.8423 17.6345L42.6709 14.5423C42.7813 14.13 42.854 13.7645 42.889 13.4456C42.9298 13.1283 42.9344 12.8518 42.9029 12.6161C42.8773 12.3819 42.82 12.1835 42.731 12.0208C42.6436 11.8522 42.5283 11.7171 42.385 11.6156C42.2493 11.5098 42.0872 11.4316 41.8987 11.3811C41.6631 11.318 41.4377 11.3112 41.2223 11.3609C41.0145 11.4061 40.8174 11.5175 40.631 11.6948C40.4447 11.8721 40.2687 12.128 40.1034 12.4625C39.9439 12.7985 39.7955 13.2227 39.6582 13.7351L38.8297 16.8273C38.7176 17.2454 38.6404 17.6161 38.598 17.9393C38.5631 18.2582 38.5576 18.5377 38.5816 18.7777C38.6132 19.0134 38.6727 19.2156 38.7601 19.3841C38.849 19.5469 38.9651 19.679 39.1084 19.7805C39.2516 19.882 39.4175 19.958 39.606 20.0085C39.8357 20.07 40.0544 20.0781 40.2623 20.0329C40.47 19.9875 40.6672 19.8762 40.8536 19.6989C41.0474 19.5173 41.2241 19.2585 41.3836 18.9225C41.5505 18.5821 41.7034 18.1528 41.8423 17.6345Z" fill="#F6F6F6"/>
<path d="M33.2437 1.16504H20.7559C19.4628 1.16504 18.4145 2.21335 18.4145 3.5065V25.3602C18.4145 26.6533 19.4628 27.7016 20.7559 27.7016H33.2437C34.5369 27.7016 35.5852 26.6533 35.5852 25.3602V3.5065C35.5852 2.21335 34.5369 1.16504 33.2437 1.16504Z" fill="#F6F6F6"/>
<path d="M22.3535 10.2474V8.18944H31.4633V9.94554L27.1553 14.5644C26.7224 15.0461 26.381 15.4699 26.1309 15.8358C25.8809 16.2077 25.7011 16.54 25.5913 16.8327C25.4755 17.1315 25.4175 17.415 25.4175 17.6833C25.4175 18.0858 25.4846 18.4303 25.6188 18.7169C25.7529 19.0096 25.9511 19.2351 26.2133 19.3937C26.4693 19.5523 26.7864 19.6315 27.1645 19.6315C27.5669 19.6315 27.9145 19.5339 28.2072 19.3388C28.4938 19.1437 28.7132 18.8724 28.8657 18.5248C29.012 18.1773 29.0852 17.7839 29.0852 17.3449H31.7285C31.7285 18.1376 31.5395 18.8632 31.1615 19.5217C30.7834 20.1864 30.2499 20.7139 29.5608 21.1041C28.8718 21.5004 28.0547 21.6986 27.1096 21.6986C26.1767 21.6986 25.3901 21.5462 24.7498 21.2412C24.1035 20.9425 23.6157 20.5095 23.2864 19.9425C22.951 19.3815 22.7834 18.7107 22.7834 17.9302C22.7834 17.4912 22.8535 17.0614 22.9937 16.6406C23.134 16.2261 23.3352 15.8114 23.5974 15.3968C23.8535 14.9882 24.1645 14.5736 24.5304 14.1528C24.8962 13.7321 25.3016 13.2961 25.7468 12.8449L28.0608 10.2474H22.3535Z" fill="black"/>
</svg>
