<svg width="176" height="166" viewBox="0 0 176 166" fill="none" xmlns="http://www.w3.org/2000/svg">
<path fill-rule="evenodd" clip-rule="evenodd" d="M8.15724 9.25041L30.3539 5.33655C32.6289 4.93539 34.8256 5.95971 36.0276 7.7679C37.5894 6.16831 39.8889 5.34293 42.2566 5.76043L61.7643 9.20015C65.5715 9.87148 68.1137 13.5021 67.4424 17.3093L61.0673 53.4645C60.3959 57.2717 56.7653 59.8139 52.9581 59.1426L35.1033 55.9943L16.9634 59.1928C13.8987 59.7332 10.9762 57.6869 10.4358 54.6222L3.58655 15.778C3.04615 12.7133 5.09252 9.7908 8.15724 9.25041ZM61.3084 11.7853L41.8008 8.34555C40.0161 8.03087 38.2936 8.84593 37.3668 10.277C37.2473 10.4616 37.141 10.6564 37.0496 10.8603L43.7308 48.7514C44.1316 51.0245 43.1093 53.2195 41.3039 54.4221L53.4139 56.5575C55.7934 56.977 58.0626 55.3882 58.4821 53.0086L64.8573 16.8535C65.2768 14.474 63.688 12.2049 61.3084 11.7853Z" fill="#F6F6F6"/>
<path d="M3.31201 82.728H10.848V96.456L24.24 82.728H33.648L18.864 97.08L34.944 117H25.488L13.392 101.784L10.848 104.52V117H3.31201V82.728ZM45.1046 117.624C43.9206 117.624 42.8166 117.48 41.7926 117.192C40.7686 116.904 39.8726 116.456 39.1046 115.848C38.3366 115.24 37.7286 114.472 37.2806 113.544C36.8646 112.616 36.6566 111.512 36.6566 110.232C36.6566 108.824 36.8966 107.672 37.3766 106.776C37.8886 105.848 38.5286 105.112 39.2966 104.568C40.0966 104.024 40.9926 103.624 41.9846 103.368C43.0086 103.08 44.0326 102.856 45.0566 102.696C46.0806 102.536 47.0886 102.408 48.0806 102.312C49.0726 102.216 49.9526 102.072 50.7206 101.88C51.4886 101.688 52.0966 101.416 52.5446 101.064C52.9926 100.68 53.2006 100.136 53.1686 99.432C53.1686 98.728 53.0406 98.152 52.7846 97.704C52.5606 97.256 52.2406 96.92 51.8246 96.696C51.4406 96.44 50.9766 96.28 50.4326 96.216C49.9206 96.12 49.3606 96.072 48.7526 96.072C47.4086 96.072 46.3526 96.36 45.5846 96.936C44.8166 97.512 44.3686 98.472 44.2406 99.816H37.4246C37.5206 98.248 37.9206 96.936 38.6246 95.88C39.3286 94.792 40.2246 93.928 41.3126 93.288C42.4006 92.648 43.6166 92.2 44.9606 91.944C46.3046 91.656 47.6806 91.512 49.0886 91.512C50.3366 91.512 51.6006 91.608 52.8806 91.8C54.1606 91.96 55.3286 92.296 56.3846 92.808C57.4406 93.32 58.3046 94.04 58.9766 94.968C59.6486 95.896 59.9846 97.096 59.9846 98.568V111.48C59.9846 112.6 60.0486 113.672 60.1766 114.696C60.3046 115.72 60.5286 116.488 60.8486 117H53.9366C53.8086 116.616 53.6966 116.232 53.6006 115.848C53.5366 115.432 53.4886 115.016 53.4566 114.6C52.3686 115.72 51.0886 116.504 49.6166 116.952C48.1446 117.4 46.6406 117.624 45.1046 117.624ZM47.6486 113.112C48.9926 113.112 50.0326 112.888 50.7686 112.44C51.5046 111.992 52.0486 111.464 52.4006 110.856C52.7526 110.216 52.9606 109.576 53.0246 108.936C53.1206 108.296 53.1686 107.784 53.1686 107.4V104.856C52.8806 105.112 52.5286 105.32 52.1126 105.48C51.6966 105.608 51.2326 105.72 50.7206 105.816C50.2086 105.912 49.6806 105.992 49.1366 106.056C48.5926 106.12 48.0486 106.2 47.5046 106.296C46.9606 106.392 46.4486 106.52 45.9686 106.68C45.4886 106.84 45.0566 107.064 44.6726 107.352C44.3206 107.608 44.0326 107.944 43.8086 108.36C43.5846 108.776 43.4726 109.304 43.4726 109.944C43.4726 110.584 43.5846 111.112 43.8086 111.528C44.0326 111.912 44.3366 112.232 44.7206 112.488C45.1046 112.712 45.5526 112.872 46.0646 112.968C46.5766 113.064 47.1046 113.112 47.6486 113.112ZM65.7551 92.184H72.2351V95.352H72.3311C73.1631 94.008 74.2191 93.032 75.4991 92.424C76.7791 91.816 78.1871 91.512 79.7231 91.512C81.6751 91.512 83.3551 91.88 84.7631 92.616C86.1711 93.352 87.3391 94.328 88.2671 95.544C89.1951 96.76 89.8831 98.184 90.3311 99.816C90.7791 101.416 91.0031 103.096 91.0031 104.856C91.0031 106.52 90.7791 108.12 90.3311 109.656C89.8831 111.192 89.1951 112.552 88.2671 113.736C87.3711 114.92 86.2351 115.864 84.8591 116.568C83.5151 117.272 81.9311 117.624 80.1071 117.624C78.5711 117.624 77.1471 117.32 75.8351 116.712C74.5551 116.072 73.4991 115.144 72.6671 113.928H72.5711V125.688H65.7551V92.184ZM78.2831 112.536C79.4031 112.536 80.3311 112.312 81.0671 111.864C81.8351 111.416 82.4431 110.84 82.8911 110.136C83.3711 109.4 83.7071 108.568 83.8991 107.64C84.0911 106.68 84.1871 105.688 84.1871 104.664C84.1871 103.672 84.0751 102.696 83.8511 101.736C83.6591 100.776 83.3231 99.928 82.8431 99.192C82.3631 98.424 81.7391 97.816 80.9711 97.368C80.2351 96.888 79.3231 96.648 78.2351 96.648C77.1151 96.648 76.1711 96.888 75.4031 97.368C74.6671 97.816 74.0591 98.408 73.5791 99.144C73.1311 99.88 72.8111 100.744 72.6191 101.736C72.4271 102.696 72.3311 103.672 72.3311 104.664C72.3311 105.688 72.4271 106.68 72.6191 107.64C72.8431 108.568 73.1791 109.4 73.6271 110.136C74.1071 110.84 74.7151 111.416 75.4511 111.864C76.2191 112.312 77.1631 112.536 78.2831 112.536ZM101.627 97.32H93.4669V92.184H116.603V97.32H108.443V117H101.627V97.32ZM120.153 92.184H126.969V100.728H133.545C134.793 100.728 135.961 100.904 137.049 101.256C138.169 101.576 139.129 102.088 139.929 102.792C140.761 103.464 141.417 104.312 141.897 105.336C142.377 106.328 142.617 107.496 142.617 108.84C142.617 110.216 142.377 111.416 141.897 112.44C141.449 113.464 140.793 114.312 139.929 114.984C139.097 115.656 138.105 116.168 136.953 116.52C135.833 116.84 134.601 117 133.257 117H120.153V92.184ZM131.625 112.296C132.873 112.296 133.865 112.024 134.601 111.48C135.369 110.936 135.753 110.056 135.753 108.84C135.753 107.624 135.353 106.744 134.553 106.2C133.753 105.624 132.761 105.336 131.577 105.336H126.969V112.296H131.625ZM145.545 92.184H152.313V117H145.545V92.184ZM3.31201 122.728H31.824V157H24.288V129.064H10.848V157H3.31201V122.728ZM38.2282 132.184H44.7083V135.352H44.8043C45.6363 134.008 46.6922 133.032 47.9722 132.424C49.2523 131.816 50.6603 131.512 52.1963 131.512C54.1483 131.512 55.8283 131.88 57.2363 132.616C58.6443 133.352 59.8123 134.328 60.7402 135.544C61.6683 136.76 62.3563 138.184 62.8043 139.816C63.2523 141.416 63.4763 143.096 63.4763 144.856C63.4763 146.52 63.2523 148.12 62.8043 149.656C62.3563 151.192 61.6683 152.552 60.7402 153.736C59.8443 154.92 58.7083 155.864 57.3323 156.568C55.9883 157.272 54.4043 157.624 52.5803 157.624C51.0443 157.624 49.6202 157.32 48.3082 156.712C47.0282 156.072 45.9722 155.144 45.1403 153.928H45.0443V165.688H38.2282V132.184ZM50.7563 152.536C51.8763 152.536 52.8043 152.312 53.5403 151.864C54.3083 151.416 54.9163 150.84 55.3643 150.136C55.8443 149.4 56.1803 148.568 56.3723 147.64C56.5643 146.68 56.6603 145.688 56.6603 144.664C56.6603 143.672 56.5483 142.696 56.3243 141.736C56.1323 140.776 55.7963 139.928 55.3163 139.192C54.8363 138.424 54.2123 137.816 53.4443 137.368C52.7083 136.888 51.7963 136.648 50.7083 136.648C49.5883 136.648 48.6443 136.888 47.8763 137.368C47.1403 137.816 46.5322 138.408 46.0522 139.144C45.6042 139.88 45.2843 140.744 45.0923 141.736C44.9003 142.696 44.8043 143.672 44.8043 144.664C44.8043 145.688 44.9003 146.68 45.0923 147.64C45.3163 148.568 45.6523 149.4 46.1003 150.136C46.5803 150.84 47.1883 151.416 47.9243 151.864C48.6922 152.312 49.6363 152.536 50.7563 152.536ZM80.1 157.624C78.148 157.624 76.388 157.32 74.82 156.712C73.252 156.104 71.908 155.24 70.788 154.12C69.668 152.968 68.804 151.592 68.196 149.992C67.588 148.392 67.284 146.6 67.284 144.616C67.284 142.632 67.588 140.84 68.196 139.24C68.804 137.608 69.668 136.232 70.788 135.112C71.908 133.96 73.252 133.08 74.82 132.472C76.388 131.832 78.148 131.512 80.1 131.512C82.052 131.512 83.812 131.832 85.38 132.472C86.98 133.08 88.34 133.96 89.46 135.112C90.58 136.232 91.444 137.608 92.052 139.24C92.66 140.84 92.964 142.632 92.964 144.616C92.964 146.6 92.66 148.392 92.052 149.992C91.444 151.592 90.58 152.968 89.46 154.12C88.34 155.24 86.98 156.104 85.38 156.712C83.812 157.32 82.052 157.624 80.1 157.624ZM80.1 152.536C81.252 152.536 82.212 152.312 82.98 151.864C83.78 151.416 84.404 150.824 84.852 150.088C85.332 149.32 85.668 148.472 85.86 147.544C86.052 146.584 86.148 145.608 86.148 144.616C86.148 143.624 86.052 142.648 85.86 141.688C85.668 140.728 85.332 139.88 84.852 139.144C84.404 138.408 83.78 137.816 82.98 137.368C82.212 136.888 81.252 136.648 80.1 136.648C78.948 136.648 77.988 136.888 77.22 137.368C76.452 137.816 75.828 138.408 75.348 139.144C74.9 139.88 74.58 140.728 74.388 141.688C74.196 142.648 74.1 143.624 74.1 144.616C74.1 145.608 74.196 146.584 74.388 147.544C74.58 148.472 74.9 149.32 75.348 150.088C75.828 150.824 76.452 151.416 77.22 151.864C77.988 152.312 78.948 152.536 80.1 152.536ZM103.924 137.32H95.7638V132.184H118.9V137.32H110.74V157H103.924V137.32ZM122.449 132.184H128.977V148.984L138.337 132.184H146.065V157H139.537V140.2L130.177 157H122.449V132.184ZM151.903 132.184H166.159C167.247 132.184 168.271 132.312 169.231 132.568C170.191 132.792 171.023 133.16 171.727 133.672C172.463 134.152 173.039 134.792 173.455 135.592C173.871 136.392 174.079 137.336 174.079 138.424C174.079 139.64 173.775 140.696 173.167 141.592C172.559 142.456 171.743 143.112 170.719 143.56C171.999 143.912 173.071 144.584 173.935 145.576C174.799 146.536 175.231 147.88 175.231 149.608C175.231 150.824 175.007 151.896 174.559 152.824C174.143 153.72 173.551 154.488 172.783 155.128C172.015 155.736 171.119 156.2 170.095 156.52C169.071 156.84 167.983 157 166.831 157H151.903V132.184ZM163.663 152.584C164.239 152.584 164.799 152.552 165.343 152.488C165.887 152.392 166.367 152.232 166.783 152.008C167.199 151.784 167.535 151.464 167.791 151.048C168.047 150.6 168.175 150.024 168.175 149.32C168.175 148.616 168.031 148.04 167.743 147.592C167.487 147.144 167.135 146.808 166.687 146.584C166.239 146.36 165.727 146.216 165.151 146.152C164.575 146.056 163.983 146.008 163.375 146.008H158.623V152.584H163.663ZM163.135 142.168C163.647 142.168 164.143 142.136 164.623 142.072C165.103 142.008 165.535 141.88 165.919 141.688C166.303 141.464 166.607 141.176 166.831 140.824C167.055 140.44 167.167 139.928 167.167 139.288C167.167 138.68 167.055 138.2 166.831 137.848C166.607 137.464 166.303 137.176 165.919 136.984C165.567 136.792 165.135 136.664 164.623 136.6C164.143 136.536 163.647 136.504 163.135 136.504H158.623V142.168H163.135Z" fill="#F6F6F6"/>
</svg>
