<svg width="32" height="32" viewBox="0 0 32 32" fill="none" xmlns="http://www.w3.org/2000/svg">
<g clip-path="url(#clip0_1251_2815)">
<rect width="32" height="32" fill="#060606"/>
<path fill-rule="evenodd" clip-rule="evenodd" d="M22.8366 9.9756L17.2918 9.02111C16.7234 8.92328 16.1747 9.17308 15.8744 9.61405C15.4843 9.22395 14.9099 9.02266 14.3184 9.12448L9.44528 9.96335C8.49421 10.1271 7.85916 11.0125 8.02686 11.941L9.6194 20.7583C9.7871 21.6868 10.694 22.3068 11.6451 22.1431L16.1053 21.3753L20.6368 22.1554C21.4023 22.2872 22.1324 21.7881 22.2674 21.0407L23.9784 11.5675C24.1134 10.8201 23.6022 10.1074 22.8366 9.9756ZM9.55915 10.5938L14.4323 9.75493C14.8781 9.67819 15.3084 9.87696 15.5399 10.226C15.5697 10.271 15.5963 10.3185 15.6191 10.3682L13.9501 19.6089C13.85 20.1633 14.1054 20.6986 14.5564 20.9919L11.5312 21.5127C10.9368 21.615 10.37 21.2275 10.2652 20.6472L8.67263 11.8298C8.56782 11.2495 8.96473 10.6961 9.55915 10.5938Z" fill="#F6F6F6"/>
</g>
<defs>
<clipPath id="clip0_1251_2815">
<rect width="32" height="32" rx="8" fill="white"/>
</clipPath>
</defs>
</svg>
