<svg width="67" height="41" viewBox="0 0 67 41" fill="none" xmlns="http://www.w3.org/2000/svg">
<path d="M4.12252 6.14232L18.7718 2.21705C20.5815 1.73214 22.4076 3.02166 22.5747 4.91644C23.722 17.9272 25.248 24.898 27.9426 29.9917C29.11 32.1983 28.1164 34.9126 26.0363 35.4699L12.9224 38.9838C11.322 39.4126 9.67696 38.4629 9.24814 36.8625L2.0012 9.81655C1.57238 8.21616 2.52212 6.57114 4.12252 6.14232Z" stroke="black" stroke-width="2"/>
<path d="M10.562 23.3958L11.3506 26.3388L23.2133 23.1602L22.8149 20.7677L13.339 11.8905L10.328 12.6972L15.0339 17.1748L19.0063 21.1331L10.562 23.3958ZM9.53563 12.9096L13.9517 29.3907L17.7664 28.3685L13.3503 11.8874L9.53563 12.9096Z" fill="black"/>
<path d="M46.9223 2.0012L62.3771 6.14231C63.9775 6.57113 64.9272 8.21614 64.4984 9.81654L57.2515 36.8625C56.8226 38.4629 55.1776 39.4126 53.5772 38.9838L44.2063 36.4729C42.9505 36.1364 42.0452 34.9435 41.6367 33.1994C41.2321 31.4718 41.3958 29.4728 42.0299 28.0114C43.5517 24.5039 43.6383 20.537 43.5147 16.5115C43.4897 15.6978 43.4562 14.8812 43.4226 14.0621C43.2872 10.764 43.15 7.42314 43.561 4.04734C43.7432 2.54972 45.2828 1.56191 46.9223 2.0012Z" stroke="black" stroke-width="2"/>
<path d="M57.0123 20.141L56.2055 23.152C55.8881 24.3368 55.4725 25.3294 54.9587 26.13C54.4525 26.9326 53.866 27.5519 53.1991 27.9879C52.5399 28.4259 51.8219 28.6905 51.0453 28.7817C50.2687 28.8729 49.4578 28.8052 48.6126 28.5787C47.9334 28.3968 47.3228 28.1401 46.7807 27.8088C46.2406 27.47 45.7814 27.0558 45.403 26.5662C45.0342 26.0711 44.7538 25.5026 44.5619 24.8607C44.3699 24.2188 44.2834 23.5001 44.3025 22.7045C44.3236 21.9013 44.4615 21.0243 44.7163 20.0735L45.5231 17.0625C45.8426 15.8702 46.2544 14.8765 46.7586 14.0815C47.2724 13.2809 47.8627 12.6626 48.5295 12.2266C49.1963 11.7906 49.918 11.527 50.6947 11.4358C51.4713 11.3447 52.2822 11.4123 53.1274 11.6388C53.8065 11.8208 54.4124 12.0802 54.9449 12.417C55.487 12.7483 55.9463 13.1625 56.3226 13.6596C56.701 14.1492 56.9823 14.714 57.1668 15.3538C57.3587 15.9957 57.4442 16.7182 57.4231 17.5214C57.404 18.317 57.2671 19.1902 57.0123 20.141ZM52.2665 22.594L53.3281 18.6322C53.4696 18.1039 53.5628 17.6355 53.6076 17.2269C53.6599 16.8204 53.6659 16.4661 53.6255 16.1641C53.5926 15.8641 53.5192 15.6099 53.4052 15.4014C53.2932 15.1854 53.1455 15.0123 52.9619 14.8823C52.788 14.7467 52.5803 14.6466 52.3388 14.5818C52.0369 14.501 51.7481 14.4923 51.4722 14.5559C51.2059 14.614 50.9534 14.7566 50.7146 14.9838C50.4758 15.2109 50.2504 15.5388 50.0385 15.9673C49.8342 16.3978 49.6441 16.9414 49.4682 17.5979L48.4066 21.5597C48.263 22.0955 48.1641 22.5704 48.1097 22.9845C48.065 23.3931 48.058 23.7512 48.0888 24.0587C48.1292 24.3607 48.2054 24.6197 48.3174 24.8357C48.4314 25.0442 48.5801 25.2135 48.7637 25.3435C48.9472 25.4736 49.1597 25.571 49.4012 25.6357C49.6955 25.7146 49.9758 25.725 50.2421 25.6669C50.5084 25.6088 50.7609 25.4662 50.9997 25.239C51.2481 25.0063 51.4745 24.6747 51.6788 24.2442C51.8927 23.8081 52.0886 23.258 52.2665 22.594Z" fill="black"/>
<path d="M37.1729 21.2305C35.7089 21.2305 34.8126 22.4322 34.4255 23.3462C34.2994 23.6312 34.1357 23.8223 33.9413 23.9557C33.7539 24.0795 33.5091 24.1601 33.1641 24.1601C32.8184 24.1601 32.6058 24.0883 32.4716 24.0052L32.4717 24.0052L32.4629 23.9999C32.3074 23.9058 32.1854 23.774 32.0927 23.5717L32.0927 23.5716L32.0893 23.5644C31.994 23.3608 31.9258 23.0717 31.9258 22.6641C31.9258 22.4654 31.9686 22.2251 32.0808 21.9357L32.0809 21.9358L32.0848 21.9253C32.1889 21.6477 32.375 21.2937 32.6676 20.858C32.9532 20.4404 33.357 19.9366 33.89 19.3432L38.9695 13.8971C39.4209 13.4131 39.6719 12.7759 39.6719 12.1141C39.6719 10.6704 38.5016 9.5 37.0578 9.5H28.3184C27.038 9.5 26 10.538 26 11.8184C26 13.0988 27.038 14.1367 28.3184 14.1367H29.8553C30.7104 14.1367 31.1669 15.1392 30.6149 15.7837C30.0399 16.3673 29.5129 16.9343 29.0345 17.4844C28.5372 18.0563 28.1068 18.6286 27.7474 19.2018C27.3746 19.7915 27.0808 20.3936 26.873 21.0077L26.8716 21.0119C26.6583 21.6519 26.5508 22.3094 26.5508 22.9805C26.5508 24.1237 26.797 25.1659 27.3338 26.0663C27.8668 26.9815 28.6521 27.6676 29.6455 28.1279C30.6344 28.5977 31.7969 28.8086 33.0937 28.8086C34.4452 28.8086 35.6698 28.5245 36.73 27.9154C37.7622 27.3303 38.5771 26.5282 39.1534 25.5156C39.3951 25.0943 39.5868 24.6526 39.7272 24.1916C39.9774 23.3699 39.7272 22.5917 39.2344 22.0542C38.7572 21.5336 38.0547 21.2305 37.3184 21.2305H37.1729ZM25.25 1.49249H41.25C42.9069 1.49249 44.25 2.83564 44.25 4.49249V32.4925C44.25 34.1493 42.9069 35.4925 41.25 35.4925H25.25C23.5931 35.4925 22.25 34.1493 22.25 32.4925V4.49249C22.25 2.83564 23.5931 1.49249 25.25 1.49249Z" fill="black" stroke="black" stroke-width="2"/>
<path d="M26 13.1367V14.1367H27H32.0824L30.6178 15.7808C30.0417 16.3654 29.5137 16.9333 29.0345 17.4844C28.5373 18.0562 28.1069 18.6285 27.7475 19.2015C27.3747 19.7914 27.0808 20.3935 26.873 21.0077L26.8716 21.0119C26.6583 21.6519 26.5508 22.3094 26.5508 22.9805C26.5508 24.1237 26.797 25.166 27.3338 26.0663C27.8668 26.9815 28.6521 27.6676 29.6455 28.1279C30.6344 28.5977 31.7969 28.8086 33.0937 28.8086C34.4452 28.8086 35.6698 28.5245 36.73 27.9154C37.7622 27.3303 38.5771 26.5282 39.1534 25.5156C39.728 24.5141 40.0117 23.4121 40.0117 22.2305V21.2305H39.0117H35.625H34.625V22.2305C34.625 22.6779 34.5512 23.0446 34.425 23.3473C34.299 23.6317 34.1354 23.8224 33.9413 23.9557C33.7539 24.0795 33.5091 24.1601 33.1641 24.1601C32.8184 24.1601 32.6058 24.0883 32.4716 24.0052L32.4717 24.0052L32.4629 23.9999C32.3074 23.9058 32.1854 23.774 32.0927 23.5717L32.0927 23.5716L32.0893 23.5644C31.994 23.3608 31.9258 23.0717 31.9258 22.6641C31.9258 22.4654 31.9686 22.2251 32.0808 21.9357L32.0809 21.9358L32.0848 21.9253C32.1889 21.6477 32.375 21.2937 32.6676 20.858C32.9533 20.4404 33.3571 19.9366 33.89 19.3432L39.4032 13.4321L39.6719 13.144V12.75V10.5V9.5H38.6719H27H26V10.5V13.1367ZM25.25 4.49249H41.25V32.4925H25.25V4.49249Z" fill="black" stroke="black" stroke-width="2"/>
</svg>
