<svg width="20" height="20" viewBox="0 0 20 20" fill="none" xmlns="http://www.w3.org/2000/svg">
<g clip-path="url(#clip0_115_1060)">
<path d="M15.833 6.66659L12.4997 9.99992H14.9997C14.9997 12.7583 12.758 14.9999 9.99967 14.9999C9.15801 14.9999 8.35801 14.7916 7.66634 14.4166L6.44967 15.6333C7.47467 16.2833 8.69134 16.6666 9.99967 16.6666C13.683 16.6666 16.6663 13.6833 16.6663 9.99992H19.1663L15.833 6.66659ZM4.99967 9.99992C4.99967 7.24159 7.24134 4.99992 9.99967 4.99992C10.8413 4.99992 11.6413 5.20825 12.333 5.58325L13.5497 4.36659C12.5247 3.71659 11.308 3.33325 9.99967 3.33325C6.31634 3.33325 3.33301 6.31659 3.33301 9.99992H0.833008L4.16634 13.3333L7.49967 9.99992H4.99967Z" fill="white"/>
</g>
<defs>
<clipPath id="clip0_115_1060">
<rect width="20" height="20" fill="white"/>
</clipPath>
</defs>
</svg>
