<svg width="12" height="12" viewBox="0 0 12 12" fill="none" xmlns="http://www.w3.org/2000/svg">
<g clip-path="url(#clip0_1225_2352)">
<path d="M9.5 2.5H8.5V2C8.5 1.725 8.275 1.5 8 1.5H4C3.725 1.5 3.5 1.725 3.5 2V2.5H2.5C1.95 2.5 1.5 2.95 1.5 3.5V4C1.5 5.275 2.46 6.315 3.695 6.47C4.01 7.22 4.685 7.785 5.5 7.95V9.5H4C3.725 9.5 3.5 9.725 3.5 10C3.5 10.275 3.725 10.5 4 10.5H8C8.275 10.5 8.5 10.275 8.5 10C8.5 9.725 8.275 9.5 8 9.5H6.5V7.95C7.315 7.785 7.99 7.22 8.305 6.47C9.54 6.315 10.5 5.275 10.5 4V3.5C10.5 2.95 10.05 2.5 9.5 2.5ZM2.5 4V3.5H3.5V5.41C2.92 5.2 2.5 4.65 2.5 4ZM9.5 4C9.5 4.65 9.08 5.2 8.5 5.41V3.5H9.5V4Z" fill="white"/>
</g>
<defs>
<clipPath id="clip0_1225_2352">
<rect width="12" height="12" fill="white"/>
</clipPath>
</defs>
</svg>
